<svg width="206" height="410" viewBox="0 0 206 410" fill="none" xmlns="http://www.w3.org/2000/svg">
<g opacity="0.71">
<path d="M204.866 230.258C203.933 246.019 197.11 260.698 185.574 271.451L0.214844 409.062V318.817L33.6348 294.257L33.6748 294.228L33.6973 294.184L34.2393 293.148L34.2637 293.102V293.049L34.5098 127.537L204.866 0.427734V230.258Z" fill="url(#paint0_radial_13_3889)" fill-opacity="0.15"></path>
<path d="M204.866 230.258C203.933 246.019 197.11 260.698 185.574 271.451L0.214844 409.062V318.817L33.6348 294.257L33.6748 294.228L33.6973 294.184L34.2393 293.148L34.2637 293.102V293.049L34.5098 127.537L204.866 0.427734V230.258Z" fill="url(#paint1_linear_13_3889)"></path>
<path d="M204.866 230.258C203.933 246.019 197.11 260.698 185.574 271.451L0.214844 409.062V318.817L33.6348 294.257L33.6748 294.228L33.6973 294.184L34.2393 293.148L34.2637 293.102V293.049L34.5098 127.537L204.866 0.427734V230.258Z" stroke="url(#paint2_linear_13_3889)" stroke-opacity="0.91" stroke-width="0.429956"></path>
<path d="M204.866 230.258C203.933 246.019 197.11 260.698 185.574 271.451L0.214844 409.062V318.817L33.6348 294.257L33.6748 294.228L33.6973 294.184L34.2393 293.148L34.2637 293.102V293.049L34.5098 127.537L204.866 0.427734V230.258Z" stroke="url(#paint3_radial_13_3889)" stroke-width="0.429956"></path>
</g>
<defs>
<radialGradient id="paint0_radial_13_3889" cx="0" cy="0" r="1" gradientTransform="matrix(0 810.904 -926.977 -0.0197343 54.0891 -284.099)" gradientUnits="userSpaceOnUse">
<stop stop-color="#001B3D"></stop>
<stop offset="0.6" stop-color="#001B3D" stop-opacity="0"></stop>
<stop offset="1" stop-color="#001B3D"></stop>
</radialGradient>
<linearGradient id="paint1_linear_13_3889" x1="102.541" y1="-36.2611" x2="102.541" y2="657.742" gradientUnits="userSpaceOnUse">
<stop stop-color="#3C2D20"></stop>
<stop offset="0.475961" stop-color="#3C2D20" stop-opacity="0"></stop>
<stop offset="1" stop-color="#3C2D20" stop-opacity="0.29"></stop>
</linearGradient>
<linearGradient id="paint2_linear_13_3889" x1="129.021" y1="-16.4771" x2="129.021" y2="520.747" gradientUnits="userSpaceOnUse">
<stop stop-color="#001B3D"></stop>
<stop offset="1" stop-color="#001B3D" stop-opacity="0"></stop>
</linearGradient>
<radialGradient id="paint3_radial_13_3889" cx="0" cy="0" r="1" gradientTransform="matrix(0 636.16 -458.778 168.288 176.558 -64.4067)" gradientUnits="userSpaceOnUse">
<stop stop-color="#FDF2EC"></stop>
<stop offset="1" stop-color="#FDF2EC" stop-opacity="0"></stop>
</radialGradient>
</defs>
</svg>