<svg width="222" height="72" viewBox="0 0 222 72" fill="none" xmlns="http://www.w3.org/2000/svg">
<path d="M104.474 26.4178C104.474 23.4284 106.54 21.4947 109.749 21.4947C111.464 21.4947 112.958 21.9784 114.101 23.0329V31.0327H109.705C106.408 31.0327 104.474 29.3179 104.474 26.4178ZM104.474 49.9781C104.474 46.7697 106.672 44.5712 109.925 44.5712C111.595 44.5712 113.09 45.0985 114.232 46.1095V55.0766L112.386 55.2967V47.0769C111.682 46.6378 110.804 46.4178 109.836 46.4178C107.814 46.4178 106.408 47.8678 106.408 49.9781C106.408 52.0883 107.946 53.4501 110.364 53.4501H112.386L110.759 55.2967H110.144C106.672 55.2967 104.473 53.2311 104.473 49.9781H104.474ZM112.342 29.1872V24.1322C111.638 23.6485 110.672 23.4284 109.749 23.4284C107.507 23.4284 106.321 24.4394 106.321 26.4178C106.321 28.1762 107.552 29.1872 109.706 29.1872H112.343H112.342ZM106.628 18.77L108.035 17.3635L109.441 18.77L108.035 20.1764L106.628 18.77ZM109.836 18.77L111.287 17.3635L112.693 18.77L111.287 20.1764L109.836 18.77ZM115.155 33.8467L117.484 32.4838V22.7693L119.243 21.2746V29.1861H131.462C132.605 29.1861 133.22 28.5706 133.22 27.4277V22.7682L134.979 21.2735V27.3395C134.979 29.7134 133.616 31.0316 131.243 31.0316H119.243V31.6036C119.243 32.9218 118.804 33.7574 117.616 34.4612L115.155 35.9112V33.8456V33.8467ZM117.045 42.1101L118.892 40.5413V55.1649H117.045V42.1101ZM119.551 57.8907L121.793 56.5724V44.7487H123.64V55.6061C123.64 56.9243 123.156 57.8035 122.013 58.5073L119.552 59.9573V57.8918L119.551 57.8907ZM121.309 41.9347L122.716 40.5283L124.122 41.9347L122.716 43.3412L121.309 41.9347ZM125.353 34.5058L126.76 33.0994L128.166 34.5058L126.76 35.9123L125.353 34.5058ZM125.661 49.9781C125.661 46.7697 127.858 44.5712 131.111 44.5712C132.781 44.5712 134.276 45.0985 135.419 46.1095V55.0766L133.572 55.2967V47.0769C132.868 46.6378 131.99 46.4178 131.023 46.4178C129.001 46.4178 127.594 47.8678 127.594 49.9781C127.594 52.0883 129.133 53.4501 131.55 53.4501H133.572L131.946 55.2967H131.33C127.858 55.2967 125.659 53.2311 125.659 49.9781H125.661ZM128.65 34.5058L130.056 33.0994L131.419 34.5058L130.056 35.9123L128.65 34.5058ZM142.759 46.506H137.441V44.7477H146.1L140.342 53.4065H145.881V55.1649H137.002L142.759 46.506ZM137.924 33.8467L140.254 32.4838V21.4947H142.012V29.1872H154.76V28.1762C154.76 25.0549 153.045 23.3412 149.925 23.3412H146.321V21.4947H149.706C154.101 21.4947 156.519 23.9121 156.519 28.3516V29.1872L154.322 31.0338H142.014V31.6057C142.014 32.924 141.53 33.7596 140.388 34.4633L137.927 35.9134V33.8478L137.924 33.8467ZM139.726 18.77L141.133 17.3635L142.539 18.77L141.133 20.1764L139.726 18.77ZM147.419 41.9347L148.825 40.5283L150.232 41.9347L148.825 43.3412L147.419 41.9347ZM147.903 44.7477H149.749V55.1649H147.903V44.7477ZM149.923 34.5058L151.33 33.0994L152.736 34.5058L151.33 35.9123L149.923 34.5058ZM152.122 44.7477H153.969V55.1649H152.122V44.7477ZM155.199 44.7477H158.847V46.506H153.969L155.2 44.7477H155.199ZM156.518 29.1872H160.474C161.66 29.1872 162.232 28.5717 162.232 27.4288V18.8571L163.99 17.3624V27.3406C163.99 29.7145 162.672 31.0327 160.298 31.0327H156.518V29.1861V29.1872ZM159.199 49.9781C159.199 46.7697 161.396 44.5712 164.649 44.5712C166.32 44.5712 167.814 45.0985 168.957 46.1095V55.0766L167.11 55.2967V47.0769C166.407 46.6378 165.528 46.4178 164.561 46.4178C162.539 46.4178 161.133 47.8678 161.133 49.9781C161.133 52.0883 162.671 53.4501 165.089 53.4501H167.11L165.484 55.2967H164.868C161.396 55.2967 159.198 53.2311 159.198 49.9781H159.199ZM167.199 18.8582L168.957 17.3635V31.0338H167.199V18.8582ZM176.034 25.1879V23.4295H177.792V25.4951C177.792 27.8243 179.155 29.1872 181.485 29.1872H194.364V18.8571L196.122 17.3624V29.1861L193.925 31.0327H181.969C178.101 31.0327 176.035 28.9671 176.035 25.1868L176.034 25.1879ZM176.034 53.7584V42.1101L177.881 40.5413V52.7921C178.584 53.2311 179.463 53.4512 180.43 53.4512C182.452 53.4512 183.858 52.0012 183.858 49.8909C183.858 47.7807 182.32 46.4189 179.903 46.4189C179.244 46.4189 178.54 46.5071 177.881 46.6825L179.507 44.5723H180.123C183.595 44.5723 185.793 46.6378 185.793 49.8909C185.793 53.144 183.596 55.2978 180.343 55.2978C178.673 55.2978 177.178 54.7705 176.035 53.7595L176.034 53.7584ZM183.989 24.0004H188.517V25.0996H183.989V24.0004ZM184.693 22.8575C184.693 22.0666 185.352 21.4947 186.231 21.4947H187.813V22.681H186.231C185.792 22.681 185.572 22.8565 185.572 23.2966V24.0004C185.088 23.9121 184.693 23.4295 184.693 22.8575ZM187.286 49.9781C187.286 46.7697 189.483 44.5712 192.736 44.5712C194.406 44.5712 195.901 45.0985 197.044 46.1095V55.0766L195.197 55.2967V47.0769C194.494 46.6378 193.614 46.4178 192.648 46.4178C190.626 46.4178 189.22 47.8678 189.22 49.9781C189.22 52.0883 190.758 53.4501 193.175 53.4501H195.197L193.571 55.2967H192.955C189.483 55.2967 187.285 53.2311 187.285 49.9781H187.286ZM196.121 29.1872H205.659V21.4947H207.418V29.1872L205.22 31.0338H196.121V29.1872ZM199.242 44.7477H201.089V55.1649H199.242V44.7477ZM200.165 18.77L201.572 17.3635L202.978 18.77L201.572 20.1764L200.165 18.77ZM203.286 46.4178C202.539 46.4178 201.835 46.5932 201.089 46.9015L202.716 44.7912C202.979 44.6594 203.551 44.5712 204.078 44.5712C206.76 44.5712 208.562 46.3731 208.562 49.0542V55.1638H206.715V49.3179C206.715 47.3841 205.572 46.4167 203.286 46.4167V46.4178ZM207.418 29.1872H215.901C217.044 29.1872 217.659 28.5717 217.659 27.4288V22.7693L219.418 21.2746V27.3406C219.418 29.7145 218.1 31.0327 215.726 31.0327H207.418V29.1861V29.1872ZM210.846 42.1101L212.693 40.5413V49.4954L217.308 44.7487H219.505L215.505 48.881L219.944 55.1671H217.878L214.318 50.1121L212.692 51.7822V55.1671H210.845V42.1123L210.846 42.1101ZM213 34.5058L214.406 33.0994L215.813 34.5058L214.406 35.9123L213 34.5058ZM20.607 26.5497C13.6618 26.5497 9.00227 31.2528 9.00227 38.3298C9.00227 45.4068 14.0137 50.0663 22.3207 50.0663H28.8257L23.6825 56.6596H21.5286C9.52847 56.6596 2.056 49.6262 2.056 38.3298C2.056 27.0334 9.70387 19.8681 20.8695 19.8681C26.4082 19.8681 31.5504 21.7147 35.5944 25.1432V55.9558L28.8257 56.7467V28.7471C26.5837 27.3406 23.5953 26.5497 20.6059 26.5497H20.607ZM35.5519 64.1321L43.5517 59.429V16.0442L50.3204 10.9009V56.3077C50.3204 61.1426 48.4738 64.351 44.3426 66.8132L35.5519 72V64.1321ZM57.9247 51.4728V5.14325L64.6933 0V47.8678C66.9354 49.2743 69.9238 50.0652 72.9132 50.0652C79.8584 50.0652 84.5179 45.3621 84.5179 38.2851C84.5179 30.7691 79.7265 26.5932 71.1995 26.5932C69.0892 26.5932 66.9801 26.9005 64.6944 27.4724L69.8813 19.9999H71.9915C84.2107 19.9999 91.4642 26.8133 91.4642 38.2851C91.4642 49.7569 83.8163 56.7467 72.6506 56.7467C67.1119 56.7467 61.9697 54.9002 57.9257 51.4717L57.9247 51.4728Z" fill="#000000"></path>
<path d="M104.474 26.4178C104.474 23.4284 106.54 21.4947 109.749 21.4947C111.464 21.4947 112.958 21.9784 114.101 23.0329V31.0327H109.705C106.408 31.0327 104.474 29.3179 104.474 26.4178ZM104.474 49.9781C104.474 46.7697 106.672 44.5712 109.925 44.5712C111.595 44.5712 113.09 45.0985 114.232 46.1095V55.0766L112.386 55.2967V47.0769C111.682 46.6378 110.804 46.4178 109.836 46.4178C107.814 46.4178 106.408 47.8678 106.408 49.9781C106.408 52.0883 107.946 53.4501 110.364 53.4501H112.386L110.759 55.2967H110.144C106.672 55.2967 104.473 53.2311 104.473 49.9781H104.474ZM112.342 29.1872V24.1322C111.638 23.6485 110.672 23.4284 109.749 23.4284C107.507 23.4284 106.321 24.4394 106.321 26.4178C106.321 28.1762 107.552 29.1872 109.706 29.1872H112.343H112.342ZM106.628 18.77L108.035 17.3635L109.441 18.77L108.035 20.1764L106.628 18.77ZM109.836 18.77L111.287 17.3635L112.693 18.77L111.287 20.1764L109.836 18.77ZM115.155 33.8467L117.484 32.4838V22.7693L119.243 21.2746V29.1861H131.462C132.605 29.1861 133.22 28.5706 133.22 27.4277V22.7682L134.979 21.2735V27.3395C134.979 29.7134 133.616 31.0316 131.243 31.0316H119.243V31.6036C119.243 32.9218 118.804 33.7574 117.616 34.4612L115.155 35.9112V33.8456V33.8467ZM117.045 42.1101L118.892 40.5413V55.1649H117.045V42.1101ZM119.551 57.8907L121.793 56.5724V44.7487H123.64V55.6061C123.64 56.9243 123.156 57.8035 122.013 58.5073L119.552 59.9573V57.8918L119.551 57.8907ZM121.309 41.9347L122.716 40.5283L124.122 41.9347L122.716 43.3412L121.309 41.9347ZM125.353 34.5058L126.76 33.0994L128.166 34.5058L126.76 35.9123L125.353 34.5058ZM125.661 49.9781C125.661 46.7697 127.858 44.5712 131.111 44.5712C132.781 44.5712 134.276 45.0985 135.419 46.1095V55.0766L133.572 55.2967V47.0769C132.868 46.6378 131.99 46.4178 131.023 46.4178C129.001 46.4178 127.594 47.8678 127.594 49.9781C127.594 52.0883 129.133 53.4501 131.55 53.4501H133.572L131.946 55.2967H131.33C127.858 55.2967 125.659 53.2311 125.659 49.9781H125.661ZM128.65 34.5058L130.056 33.0994L131.419 34.5058L130.056 35.9123L128.65 34.5058ZM142.759 46.506H137.441V44.7477H146.1L140.342 53.4065H145.881V55.1649H137.002L142.759 46.506ZM137.924 33.8467L140.254 32.4838V21.4947H142.012V29.1872H154.76V28.1762C154.76 25.0549 153.045 23.3412 149.925 23.3412H146.321V21.4947H149.706C154.101 21.4947 156.519 23.9121 156.519 28.3516V29.1872L154.322 31.0338H142.014V31.6057C142.014 32.924 141.53 33.7596 140.388 34.4633L137.927 35.9134V33.8478L137.924 33.8467ZM139.726 18.77L141.133 17.3635L142.539 18.77L141.133 20.1764L139.726 18.77ZM147.419 41.9347L148.825 40.5283L150.232 41.9347L148.825 43.3412L147.419 41.9347ZM147.903 44.7477H149.749V55.1649H147.903V44.7477ZM149.923 34.5058L151.33 33.0994L152.736 34.5058L151.33 35.9123L149.923 34.5058ZM152.122 44.7477H153.969V55.1649H152.122V44.7477ZM155.199 44.7477H158.847V46.506H153.969L155.2 44.7477H155.199ZM156.518 29.1872H160.474C161.66 29.1872 162.232 28.5717 162.232 27.4288V18.8571L163.99 17.3624V27.3406C163.99 29.7145 162.672 31.0327 160.298 31.0327H156.518V29.1861V29.1872ZM159.199 49.9781C159.199 46.7697 161.396 44.5712 164.649 44.5712C166.32 44.5712 167.814 45.0985 168.957 46.1095V55.0766L167.11 55.2967V47.0769C166.407 46.6378 165.528 46.4178 164.561 46.4178C162.539 46.4178 161.133 47.8678 161.133 49.9781C161.133 52.0883 162.671 53.4501 165.089 53.4501H167.11L165.484 55.2967H164.868C161.396 55.2967 159.198 53.2311 159.198 49.9781H159.199ZM167.199 18.8582L168.957 17.3635V31.0338H167.199V18.8582ZM176.034 25.1879V23.4295H177.792V25.4951C177.792 27.8243 179.155 29.1872 181.485 29.1872H194.364V18.8571L196.122 17.3624V29.1861L193.925 31.0327H181.969C178.101 31.0327 176.035 28.9671 176.035 25.1868L176.034 25.1879ZM176.034 53.7584V42.1101L177.881 40.5413V52.7921C178.584 53.2311 179.463 53.4512 180.43 53.4512C182.452 53.4512 183.858 52.0012 183.858 49.8909C183.858 47.7807 182.32 46.4189 179.903 46.4189C179.244 46.4189 178.54 46.5071 177.881 46.6825L179.507 44.5723H180.123C183.595 44.5723 185.793 46.6378 185.793 49.8909C185.793 53.144 183.596 55.2978 180.343 55.2978C178.673 55.2978 177.178 54.7705 176.035 53.7595L176.034 53.7584ZM183.989 24.0004H188.517V25.0996H183.989V24.0004ZM184.693 22.8575C184.693 22.0666 185.352 21.4947 186.231 21.4947H187.813V22.681H186.231C185.792 22.681 185.572 22.8565 185.572 23.2966V24.0004C185.088 23.9121 184.693 23.4295 184.693 22.8575ZM187.286 49.9781C187.286 46.7697 189.483 44.5712 192.736 44.5712C194.406 44.5712 195.901 45.0985 197.044 46.1095V55.0766L195.197 55.2967V47.0769C194.494 46.6378 193.614 46.4178 192.648 46.4178C190.626 46.4178 189.22 47.8678 189.22 49.9781C189.22 52.0883 190.758 53.4501 193.175 53.4501H195.197L193.571 55.2967H192.955C189.483 55.2967 187.285 53.2311 187.285 49.9781H187.286ZM196.121 29.1872H205.659V21.4947H207.418V29.1872L205.22 31.0338H196.121V29.1872ZM199.242 44.7477H201.089V55.1649H199.242V44.7477ZM200.165 18.77L201.572 17.3635L202.978 18.77L201.572 20.1764L200.165 18.77ZM203.286 46.4178C202.539 46.4178 201.835 46.5932 201.089 46.9015L202.716 44.7912C202.979 44.6594 203.551 44.5712 204.078 44.5712C206.76 44.5712 208.562 46.3731 208.562 49.0542V55.1638H206.715V49.3179C206.715 47.3841 205.572 46.4167 203.286 46.4167V46.4178ZM207.418 29.1872H215.901C217.044 29.1872 217.659 28.5717 217.659 27.4288V22.7693L219.418 21.2746V27.3406C219.418 29.7145 218.1 31.0327 215.726 31.0327H207.418V29.1861V29.1872ZM210.846 42.1101L212.693 40.5413V49.4954L217.308 44.7487H219.505L215.505 48.881L219.944 55.1671H217.878L214.318 50.1121L212.692 51.7822V55.1671H210.845V42.1123L210.846 42.1101ZM213 34.5058L214.406 33.0994L215.813 34.5058L214.406 35.9123L213 34.5058ZM20.607 26.5497C13.6618 26.5497 9.00227 31.2528 9.00227 38.3298C9.00227 45.4068 14.0137 50.0663 22.3207 50.0663H28.8257L23.6825 56.6596H21.5286C9.52847 56.6596 2.056 49.6262 2.056 38.3298C2.056 27.0334 9.70387 19.8681 20.8695 19.8681C26.4082 19.8681 31.5504 21.7147 35.5944 25.1432V55.9558L28.8257 56.7467V28.7471C26.5837 27.3406 23.5953 26.5497 20.6059 26.5497H20.607ZM35.5519 64.1321L43.5517 59.429V16.0442L50.3204 10.9009V56.3077C50.3204 61.1426 48.4738 64.351 44.3426 66.8132L35.5519 72V64.1321ZM57.9247 51.4728V5.14325L64.6933 0V47.8678C66.9354 49.2743 69.9238 50.0652 72.9132 50.0652C79.8584 50.0652 84.5179 45.3621 84.5179 38.2851C84.5179 30.7691 79.7265 26.5932 71.1995 26.5932C69.0892 26.5932 66.9801 26.9005 64.6944 27.4724L69.8813 19.9999H71.9915C84.2107 19.9999 91.4642 26.8133 91.4642 38.2851C91.4642 49.7569 83.8163 56.7467 72.6506 56.7467C67.1119 56.7467 61.9697 54.9002 57.9257 51.4717L57.9247 51.4728Z" fill="black" fill-opacity="0.5"></path>
<defs>
<radialGradient id="paint0_radial_6059_69859" cx="0" cy="0" r="1" gradientTransform="matrix(341.963 174.6 -2420.5 517.653 92.2374 -29.6)" gradientUnits="userSpaceOnUse">
<stop stop-color="#261300"></stop>
<stop offset="0.17" stop-color="#1F1000"></stop>
<stop offset="0.41" stop-color="#4F3D2A"></stop>
<stop offset="0.47" stop-color="#4F442A"></stop>
<stop offset="0.63" stop-color="#1A130C"></stop>
<stop offset="0.934637" stop-color="#4B3928"></stop>
<stop offset="0.96" stop-color="#4F3D2A"></stop>
<stop offset="0.98" stop-color="#54412D"></stop>
</radialGradient>
</defs>
</svg>